<svg version="1.2" xmlns="http://www.w3.org/2000/svg" viewBox="0 0 36 48" width="36" height="48"><style>.a{fill:#0a3871}</style><path fill-rule="evenodd" class="a" d="m17.5 0q0 0 0 0 0 0 0 0zm11.8 3.1c2.5 2 3.8 4.6 3.8 7.7v26.4q0 1.6-0.6 3.5c-0.4 1.3-1.2 2.5-2.4 3.6q-1.7 1.6-4.7 2.6-3 1.1-7.9 1.1-4.8 0-7.8-1.1-3-1-4.8-2.6c-1-1-1.8-2.2-2.3-3.6q-0.6-1.9-0.6-3.5v-4.2c0-2.2 0.6-4.3 1.8-6.1 1.2-1.9 2.9-3.2 5.1-4 1.1-0.4 2.3-0.7 3.7-1.2 1.4-0.5 2.8-1 4.1-1.4q1.9-0.7 3.4-1.2 0.9-0.4 1.8-0.7l1-0.5q0.6-0.3 1.1-0.9 0.6-0.7 1-1.5 0.4-0.8 0.4-1.8v-1.7q0.1-1-0.3-1.9-0.4-0.9-1.3-1.7-0.9-0.8-2.4-1.3c-1-0.3-2.3-0.5-3.8-0.5-3 0-5 0.6-6.1 1.8-0.9 1.1-1.5 2.4-1.6 3.9 0 0.4-0.3 0.6-0.6 0.6l-6.6 0.1q-0.3 0-0.5-0.2-0.1-0.2-0.1-0.4v-1.6c0-1.5 0.2-2.8 0.8-4.2 0.6-1.3 1.6-2.4 2.8-3.4 1.3-1 2.9-1.8 4.9-2.3 1.9-0.6 4.2-0.9 6.9-0.9q8.1 0 11.8 3.1zm-3.9 20.6q0 0 0 0zm-0.3 0.7q-0.3 0.4-0.6 0.6c-0.5 0.3-1 0.5-1.4 0.6q-1.4 0.5-2.9 1c-1.1 0.4-2.1 0.8-3 1.1-1.1 0.3-2.1 0.7-3.1 1q-1.1 0.5-2.1 1.3-0.9 0.8-1.5 1.8c-0.4 0.7-0.7 1.7-0.7 2.8 0 2.2 0.5 3.9 1.6 5 1.1 1.1 3.1 1.7 6.1 1.7q4.6 0 6.3-1.8 1.6-1.8 1.6-5v-10.8q-0.1 0.4-0.3 0.7z"/></svg>